<svg xmlns="http://www.w3.org/2000/svg" xmlns:xlink="http://www.w3.org/1999/xlink" width="549" zoomAndPan="magnify" viewBox="0 0 411.75 411.74999" height="549" preserveAspectRatio="xMidYMid meet" version="1.0"><defs><clipPath id="c8a2acd669"><path d="M 0 0 L 411.175781 0 L 411.175781 411.175781 L 0 411.175781 Z M 0 0 " clip-rule="nonzero"/></clipPath><clipPath id="a1ea67f556"><path d="M 205.585938 0 C 92.042969 0 0 92.042969 0 205.585938 C 0 319.128906 92.042969 411.175781 205.585938 411.175781 C 319.128906 411.175781 411.175781 319.128906 411.175781 205.585938 C 411.175781 92.042969 319.128906 0 205.585938 0 Z M 205.585938 0 " clip-rule="nonzero"/></clipPath><clipPath id="97ddc490ae"><path d="M 0 0 L 411.175781 0 L 411.175781 411.175781 L 0 411.175781 Z M 0 0 " clip-rule="nonzero"/></clipPath><clipPath id="4252475a13"><path d="M 205.585938 0 C 92.042969 0 0 92.042969 0 205.585938 C 0 319.128906 92.042969 411.175781 205.585938 411.175781 C 319.128906 411.175781 411.175781 319.128906 411.175781 205.585938 C 411.175781 92.042969 319.128906 0 205.585938 0 Z M 205.585938 0 " clip-rule="nonzero"/></clipPath><clipPath id="5a20338186"><rect x="0" width="412" y="0" height="412"/></clipPath><clipPath id="2e029136c2"><path d="M 69.617188 90 L 341.550781 90 L 341.550781 341.546875 L 69.617188 341.546875 Z M 69.617188 90 " clip-rule="nonzero"/></clipPath><clipPath id="1833e33de6"><path d="M 258 69.617188 L 279 69.617188 L 279 122 L 258 122 Z M 258 69.617188 " clip-rule="nonzero"/></clipPath><clipPath id="fa7a0a8da0"><path d="M 132 69.617188 L 153 69.617188 L 153 122 L 132 122 Z M 132 69.617188 " clip-rule="nonzero"/></clipPath></defs><g clip-path="url(#c8a2acd669)"><g clip-path="url(#a1ea67f556)"><g transform="matrix(1, 0, 0, 1, 0, 0)"><g clip-path="url(#5a20338186)"><g clip-path="url(#97ddc490ae)"><g clip-path="url(#4252475a13)"><path fill="#010101" d="M 0 0 L 411.175781 0 L 411.175781 411.175781 L 0 411.175781 Z M 0 0 " fill-opacity="1" fill-rule="nonzero"/></g></g></g></g></g></g><g clip-path="url(#2e029136c2)"><path fill="#ffffff" d="M 90.308594 164.613281 L 320.863281 164.613281 L 320.863281 307.964844 C 320.863281 315.136719 315.042969 320.953125 307.875 320.953125 L 103.296875 320.953125 C 96.125 320.976562 90.308594 315.160156 90.308594 307.964844 Z M 95.621094 90.953125 C 81.253906 90.953125 69.617188 102.589844 69.617188 116.929688 L 69.617188 315.570312 C 69.617188 329.910156 81.253906 341.546875 95.621094 341.546875 L 315.550781 341.546875 C 329.914062 341.570312 341.550781 329.933594 341.550781 315.570312 L 341.550781 116.929688 C 341.550781 102.589844 329.914062 90.953125 315.550781 90.953125 L 290.492188 90.953125 L 290.492188 111.910156 C 290.394531 124.125 280.425781 133.925781 268.234375 133.832031 C 256.160156 133.734375 246.410156 123.980469 246.3125 111.910156 L 246.3125 90.953125 L 164.859375 90.953125 L 164.859375 111.910156 C 164.761719 124.125 154.789062 133.925781 142.574219 133.832031 C 130.527344 133.734375 120.773438 123.980469 120.679688 111.910156 L 120.679688 90.953125 L 95.621094 90.953125 " fill-opacity="1" fill-rule="nonzero"/></g><path fill="#ffffff" d="M 294.789062 271.148438 L 294.789062 294.398438 L 263.402344 294.398438 L 263.402344 271.148438 L 294.789062 271.148438 " fill-opacity="1" fill-rule="nonzero"/><path fill="#ffffff" d="M 245.78125 271.148438 L 245.78125 294.398438 L 214.398438 294.398438 L 214.398438 271.148438 L 245.78125 271.148438 " fill-opacity="1" fill-rule="nonzero"/><path fill="#ffffff" d="M 196.773438 271.148438 L 196.773438 294.398438 L 165.390625 294.398438 L 165.390625 271.148438 L 196.773438 271.148438 " fill-opacity="1" fill-rule="nonzero"/><path fill="#ffffff" d="M 147.765625 271.148438 L 147.765625 294.398438 L 116.382812 294.398438 L 116.382812 271.148438 L 147.765625 271.148438 " fill-opacity="1" fill-rule="nonzero"/><path fill="#ffffff" d="M 294.789062 231.171875 L 294.789062 254.417969 L 263.402344 254.417969 L 263.402344 231.171875 L 294.789062 231.171875 " fill-opacity="1" fill-rule="nonzero"/><path fill="#ffffff" d="M 245.78125 231.171875 L 245.78125 254.417969 L 214.398438 254.417969 L 214.398438 231.171875 L 245.78125 231.171875 " fill-opacity="1" fill-rule="nonzero"/><path fill="#ffffff" d="M 196.773438 231.171875 L 196.773438 254.417969 L 165.390625 254.417969 L 165.390625 231.171875 L 196.773438 231.171875 " fill-opacity="1" fill-rule="nonzero"/><path fill="#ffffff" d="M 147.765625 231.171875 L 147.765625 254.417969 L 116.382812 254.417969 L 116.382812 231.171875 L 147.765625 231.171875 " fill-opacity="1" fill-rule="nonzero"/><path fill="#ffffff" d="M 294.789062 191.191406 L 294.789062 214.441406 L 263.402344 214.441406 L 263.402344 191.191406 L 294.789062 191.191406 " fill-opacity="1" fill-rule="nonzero"/><path fill="#ffffff" d="M 245.78125 191.191406 L 245.78125 214.441406 L 214.398438 214.441406 L 214.398438 191.191406 L 245.78125 191.191406 " fill-opacity="1" fill-rule="nonzero"/><path fill="#ffffff" d="M 196.773438 191.191406 L 196.773438 214.441406 L 165.390625 214.441406 L 165.390625 191.191406 L 196.773438 191.191406 " fill-opacity="1" fill-rule="nonzero"/><path fill="#ffffff" d="M 147.765625 191.191406 L 147.765625 214.441406 L 116.382812 214.441406 L 116.382812 191.191406 L 147.765625 191.191406 " fill-opacity="1" fill-rule="nonzero"/><g clip-path="url(#1833e33de6)"><path fill="#ffffff" d="M 278.566406 111.644531 L 278.566406 80.117188 C 278.566406 74.492188 274.003906 69.953125 268.378906 69.976562 C 262.777344 69.976562 258.238281 74.515625 258.238281 80.117188 L 258.238281 111.644531 C 258.238281 117.246094 262.824219 121.808594 268.425781 121.785156 C 274.027344 121.785156 278.566406 117.246094 278.566406 111.644531 " fill-opacity="1" fill-rule="nonzero"/></g><g clip-path="url(#fa7a0a8da0)"><path fill="#ffffff" d="M 152.933594 80.117188 C 152.933594 74.492188 148.367188 69.953125 142.769531 69.953125 C 137.144531 69.976562 132.605469 74.515625 132.605469 80.117188 L 132.605469 111.644531 C 132.605469 117.246094 137.144531 121.808594 142.769531 121.808594 C 148.394531 121.785156 152.933594 117.246094 152.933594 111.644531 L 152.933594 80.117188 " fill-opacity="1" fill-rule="nonzero"/></g></svg>